<svg width="10" height="10" viewBox="0 0 10 10" fill="none" xmlns="http://www.w3.org/2000/svg">
<path d="M8.80511 4.04001H6.11092V1.16001C6.11092 0.629852 5.70881 0.200012 5.21286 0.200012C4.7169 0.200012 4.31479 0.629852 4.31479 1.16001V4.04001H1.6206C1.12464 4.04001 0.722534 4.46985 0.722534 5.00001C0.722534 5.53017 1.12464 5.96001 1.6206 5.96001H4.31479V8.84001C4.31479 9.37017 4.7169 9.80001 5.21286 9.80001C5.70881 9.80001 6.11092 9.37017 6.11092 8.84001V5.96001H8.80511C9.30107 5.96001 9.70318 5.53017 9.70318 5.00001C9.70318 4.46985 9.30107 4.04001 8.80511 4.04001Z" fill="#5891D4"/>
</svg>
