<svg width="30" height="30" viewBox="0 0 30 30" fill="none" xmlns="http://www.w3.org/2000/svg">
<path d="M21.7096 0C24.0515 0 26.0187 0.869565 27.6112 2.6087C29.2037 4.34783 30 6.47059 30 8.97698C30 10.2046 29.7658 11.445 29.2974 12.6982C28.829 13.9514 28.3138 15.0639 27.7518 16.0358C27.1897 17.0077 26.2412 18.2609 24.9063 19.7954C23.5714 21.3299 22.4473 22.5703 21.534 23.5166C20.6206 24.4629 19.1569 25.9079 17.1429 27.8517L14.9649 30L12.7869 27.9284C10.8197 25.9335 9.36768 24.4629 8.43091 23.5166C7.49415 22.5703 6.35831 21.3299 5.02342 19.7954C3.68852 18.2609 2.74005 17.0077 2.17799 16.0358C1.61593 15.0639 1.11241 13.9514 0.667447 12.6982C0.222482 11.445 0 10.2046 0 8.97698C0 6.47059 0.796253 4.34783 2.38876 2.6087C3.98126 0.869565 5.92506 0 8.22014 0C10.9368 0 13.185 1.1509 14.9649 3.45269C16.7447 1.1509 18.993 0 21.7096 0ZM15.1054 25.4731C17.4005 23.2225 19.0749 21.5473 20.1288 20.4476C21.1827 19.3478 22.3419 18.0307 23.6066 16.4962C24.8712 14.9616 25.7494 13.6189 26.2412 12.468C26.733 11.3171 26.9789 10.1535 26.9789 8.97698C26.9789 7.34015 26.4754 5.98465 25.4684 4.91049C24.4614 3.83632 23.2084 3.29923 21.7096 3.29923C20.5855 3.29923 19.5199 3.65729 18.5129 4.3734C17.5059 5.08951 16.7916 6.01023 16.37 7.13555H13.5597C13.185 6.01023 12.4941 5.08951 11.4871 4.3734C10.4801 3.65729 9.3911 3.29923 8.22014 3.29923C6.72131 3.29923 5.48009 3.83632 4.49649 4.91049C3.51288 5.98465 3.02108 7.34015 3.02108 8.97698C3.02108 10.1535 3.25527 11.3171 3.72365 12.468C4.19204 13.6189 5.07026 14.9616 6.35831 16.4962C7.64637 18.0307 8.81733 19.3478 9.87119 20.4476C10.9251 21.5473 12.5761 23.2225 14.8244 25.4731L14.9649 25.6266L15.1054 25.4731Z" fill="#9B9B9B"/>
</svg>
